<svg width="12" height="21" viewBox="0 0 12 21" fill="none" xmlns="http://www.w3.org/2000/svg">
<path d="M11.1462 0.152223L8.48274 0.147949C5.49046 0.147949 3.55672 2.13189 3.55672 5.20258V7.5331H0.878765C0.64735 7.5331 0.459961 7.7207 0.459961 7.95211V11.3288C0.459961 11.5602 0.647562 11.7476 0.878765 11.7476H3.55672V20.268C3.55672 20.4994 3.74411 20.6868 3.97552 20.6868H7.46949C7.70091 20.6868 7.88831 20.4992 7.88831 20.268V11.7476H11.0195C11.2509 11.7476 11.4383 11.5602 11.4383 11.3288L11.4396 7.95211C11.4396 7.841 11.3953 7.73459 11.3169 7.65596C11.2385 7.57733 11.1316 7.5331 11.0205 7.5331H7.88831V5.55749C7.88831 4.60793 8.11458 4.12588 9.35154 4.12588L11.1457 4.12524C11.3769 4.12524 11.5643 3.93764 11.5643 3.70644V0.57102C11.5643 0.34004 11.3772 0.15265 11.1462 0.152223Z" fill="#89A3A3"/>
</svg>
