<svg width="18" height="18" viewBox="0 0 18 18" fill="none" xmlns="http://www.w3.org/2000/svg">
<path d="M0.465968 16.8624V3.43976C0.465968 3.10327 0.652909 2.84153 0.952002 2.72937L8.9901 0.0373751C9.21441 -0.0373777 9.4761 -1.2666e-06 9.66304 0.149539C9.84998 0.299079 9.96214 0.52344 9.96214 0.747767V2.40383L17.0282 0.0373751C17.2525 -0.0373777 17.5142 -1.2666e-06 17.7011 0.149539C17.8881 0.299079 18.0002 0.52344 18.0002 0.747767V16.825C18.0002 17.2363 18.0011 17.5728 18.0011 17.5728H9.21441C9.21441 17.5728 2.09489 17.5937 0.465968 17.5728C0.469893 16.8593 0.428593 17.2363 0.465968 16.8624ZM16.5422 1.75727L9.96214 3.92583V16.1146H12.5044V12.0018C12.5044 11.5905 12.8409 11.254 13.2522 11.254C13.6634 11.254 13.9999 11.5905 13.9999 12.0018V16.1146H16.5422V1.75727ZM1.88666 16.1146H4.42896V12.0018C4.42896 11.5905 4.76543 11.254 5.17668 11.254C5.58793 11.254 5.9244 11.5905 5.9244 12.0018V16.1146H8.46669V3.40239V1.75727L1.88666 3.92583V16.1146Z" fill="white"/>
<path d="M5.43787 5.90741H4.95181C4.54059 5.90741 4.2041 5.57094 4.2041 5.15965C4.2041 4.74837 4.54059 4.41187 4.95181 4.41187H5.43787C5.84909 4.41187 6.18558 4.74837 6.18558 5.15965C6.18558 5.57094 5.84909 5.90741 5.43787 5.90741Z" fill="white"/>
<path d="M5.43787 8.97328H4.95181C4.54059 8.97328 4.2041 8.63683 4.2041 8.22554C4.2041 7.81424 4.54059 7.47778 4.95181 7.47778H5.43787C5.84909 7.47778 6.18558 7.81424 6.18558 8.22554C6.18558 8.63683 5.84909 8.97328 5.43787 8.97328Z" fill="white"/>
<path d="M13.476 5.90741H12.9899C12.616 5.90741 12.2422 5.57094 12.2422 5.15965C12.2422 4.74837 12.5787 4.41187 12.9899 4.41187H13.476C13.8872 4.41187 14.2237 4.74837 14.2237 5.15965C14.2237 5.57094 13.8872 5.90741 13.476 5.90741Z" fill="white"/>
<path d="M13.476 8.97328H12.9899C12.616 8.97328 12.2422 8.63683 12.2422 8.22554C12.2422 7.81424 12.5787 7.47778 12.9899 7.47778H13.476C13.8872 7.47778 14.2237 7.81424 14.2237 8.22554C14.2237 8.63683 13.8872 8.97328 13.476 8.97328Z" fill="white"/>
</svg>
