<svg width="20" height="20" viewBox="0 0 20 20" fill="none" xmlns="http://www.w3.org/2000/svg">
<rect x="0.124023" y="6.1106" width="4.44474" height="13.6646" fill="#89A3A3"/>
<path d="M16.6753 6.27083C16.6281 6.25587 16.5835 6.23979 16.5337 6.22612C16.4742 6.21243 16.4145 6.20122 16.3536 6.19131C16.1176 6.1441 15.8592 6.1106 15.5561 6.1106C12.9648 6.1106 11.3213 7.99501 10.7797 8.72299V6.1106H6.33496V19.7752H10.7797V12.3217C10.7797 12.3217 14.1387 7.64345 15.5561 11.0795C15.5561 14.1466 15.5561 19.7752 15.5561 19.7752H19.9997V10.554C19.9997 8.48949 18.5847 6.76892 16.6753 6.27083Z" fill="#89A3A3"/>
<ellipse cx="2.441" cy="2.23152" rx="2.08357" ry="2.08357" fill="#89A3A3"/>
</svg>
