<svg width="18" height="19" viewBox="0 0 18 19" fill="none" xmlns="http://www.w3.org/2000/svg">
<path d="M9.32057 8.8451C10.4891 8.8451 11.4398 7.89439 11.4398 6.72578C11.4398 5.55718 10.4891 4.60645 9.32057 4.60645C8.15192 4.60645 7.20117 5.55718 7.20117 6.72578C7.20117 7.89439 8.15192 8.8451 9.32057 8.8451ZM9.32057 5.66611C9.90483 5.66611 10.3802 6.14149 10.3802 6.72578C10.3802 7.3101 9.90483 7.78544 9.32057 7.78544C8.73622 7.78544 8.26083 7.3101 8.26083 6.72578C8.26083 6.14149 8.73622 5.66611 9.32057 5.66611Z" fill="white"/>
<path d="M16.0625 12.3351H12.5164C14.1722 10.7546 15.6788 9.20536 15.6788 6.50692C15.6788 2.87114 12.9488 0.148926 9.32091 0.148926C5.68568 0.148926 2.96283 2.87923 2.96283 6.50692C2.96283 9.20536 4.46947 10.7546 6.1253 12.3351H2.5792L0.641602 18.2339H18.0001L16.0625 12.3351ZM4.0225 6.50692C4.0225 3.43686 6.2508 1.20859 9.32091 1.20859C12.3909 1.20859 14.6192 3.43686 14.6192 6.50692C14.6192 9.94158 11.7201 11.1581 9.32091 14.1161C8.59991 13.2272 7.82882 12.4935 7.079 11.7801C5.37131 10.1552 4.0225 8.87178 4.0225 6.50692ZM2.53434 15.8673H6.35377V14.8076H2.88241L3.3465 13.3948H7.2015V13.3709C8.60895 14.7666 8.98973 15.4662 9.32091 15.8833C9.66028 15.4558 10.0286 14.7708 11.4402 13.371V13.3948H15.2952L15.7593 14.8076H12.2879V15.8673H16.1073L16.5366 17.1742H2.10507L2.53434 15.8673Z" fill="white"/>
</svg>
