<svg width="18" height="18" viewBox="0 0 18 18" fill="none" xmlns="http://www.w3.org/2000/svg">
<path fill-rule="evenodd" clip-rule="evenodd" d="M11.5947 11.5948C11.803 11.3862 12.0857 11.269 12.3804 11.269C12.6751 11.269 12.9578 11.3862 13.1661 11.5948L17.4408 15.8695C17.8747 16.303 17.875 17.0062 17.4415 17.4401C17.008 17.874 16.3049 17.8743 15.871 17.4408L11.5962 13.1661C11.3877 12.9578 11.2705 12.6752 11.2705 12.3804C11.2705 12.0857 11.3877 11.803 11.5962 11.5948L11.5947 11.5948Z" fill="#89A3A3"/>
<path fill-rule="evenodd" clip-rule="evenodd" d="M7.21751 13.3246C10.5904 13.3246 13.3246 10.5904 13.3246 7.21751C13.3246 3.84464 10.5904 1.11039 7.21751 1.11039C3.84464 1.11039 1.11038 3.84464 1.11038 7.21751C1.11038 10.5904 3.84464 13.3246 7.21751 13.3246ZM14.435 7.21751C14.435 11.2036 11.2036 14.435 7.21751 14.435C3.23139 14.435 0 11.2036 0 7.21751C0 3.23139 3.23139 0 7.21751 0C11.2036 0 14.435 3.23139 14.435 7.21751Z" fill="#89A3A3"/>
</svg>
